<?xml version="1.0" encoding="utf-8"?>
<!-- Generator: Adobe Illustrator 17.0.2, SVG Export Plug-In . SVG Version: 6.00 Build 0)  -->
<!DOCTYPE svg PUBLIC "-//W3C//DTD SVG 1.1//EN" "http://www.w3.org/Graphics/SVG/1.1/DTD/svg11.dtd">
<svg version="1.1" id="Layer_1" xmlns="http://www.w3.org/2000/svg" xmlns:xlink="http://www.w3.org/1999/xlink" x="0px" y="0px"
	 width="32px" height="32px" viewBox="0 0 32 32" enable-background="new 0 0 32 32" xml:space="preserve">
<g>
	<path fill="#1C1C1C" d="M30,12h-1v-2c0-1.105-0.895-2-2-2H2c-1.105,0-2,0.895-2,2v12c0,1.105,0.895,2,2,2h25c1.105,0,2-0.895,2-2
		v-1h1c1.105,0,2-0.895,2-2v-5C32,12.895,31.105,12,30,12z M28,21c0,1.105-0.895,2-2,2H3c-1.105,0-2-0.895-2-2V11
		c0-1.105,0.895-2,2-2h23c1.105,0,2,0.895,2,2V21z M31,18c0,1.105-0.895,2-2,2v-7c1.105,0,2,0.895,2,2V18z"/>
	<path fill="#1C1C1C" d="M4.5,11C3.672,11,3,11.672,3,12.5v7C3,20.328,3.672,21,4.5,21S6,20.328,6,19.5v-7C6,11.672,5.328,11,4.5,11
		z M5,19.5C5,19.776,4.776,20,4.5,20S4,19.776,4,19.5v-7C4,12.224,4.224,12,4.5,12S5,12.224,5,12.5V19.5z"/>
	<path fill="#1C1C1C" d="M9.5,11C8.672,11,8,11.672,8,12.5v7C8,20.328,8.672,21,9.5,21s1.5-0.672,1.5-1.5v-7
		C11,11.672,10.328,11,9.5,11z M10,19.5c0,0.276-0.224,0.5-0.5,0.5S9,19.776,9,19.5v-7C9,12.224,9.224,12,9.5,12s0.5,0.224,0.5,0.5
		V19.5z"/>
</g>
</svg>
