<?xml version="1.0" encoding="utf-8"?>
<!-- Generator: Adobe Illustrator 17.0.2, SVG Export Plug-In . SVG Version: 6.00 Build 0)  -->
<!DOCTYPE svg PUBLIC "-//W3C//DTD SVG 1.1//EN" "http://www.w3.org/Graphics/SVG/1.1/DTD/svg11.dtd">
<svg version="1.1" id="Layer_1" xmlns="http://www.w3.org/2000/svg" xmlns:xlink="http://www.w3.org/1999/xlink" x="0px" y="0px"
	 width="32px" height="32px" viewBox="0 0 32 32" enable-background="new 0 0 32 32" xml:space="preserve">
<g>
	<path fill="#1C1C1C" d="M30,12h-1v-2c0-1.105-0.895-2-2-2H2c-1.105,0-2,0.895-2,2v12c0,1.105,0.895,2,2,2h25c1.105,0,2-0.895,2-2
		v-1h1c1.105,0,2-0.895,2-2v-5C32,12.895,31.105,12,30,12z M28,21c0,1.105-0.895,2-2,2H3c-1.105,0-2-0.895-2-2V11
		c0-1.105,0.895-2,2-2h23c1.105,0,2,0.895,2,2V21z M31,18c0,1.105-0.895,2-2,2v-7c1.105,0,2,0.895,2,2V18z"/>
	<polygon fill="#1C1C1C" points="12,12 13,16 4,16 17,20 16,16 25,16 	"/>
</g>
</svg>
